<svg xmlns="http://www.w3.org/2000/svg" viewBox="0 0 200 200">
<defs>
<linearGradient id="player-up-straw" x1="0" y1="0" x2="1" y2="1"><stop offset="0" stop-color="#fdecb9"/><stop offset="1" stop-color="#ecc674"/></linearGradient>
<linearGradient id="player-up-red" x1="0" y1="0" x2="1" y2="1"><stop offset="0" stop-color="#f4705f"/><stop offset="1" stop-color="#dc4a45"/></linearGradient>
<linearGradient id="player-up-skin" x1="0" y1="0" x2="1" y2="1"><stop offset="0" stop-color="#fcdcb8"/><stop offset="1" stop-color="#f2c398"/></linearGradient>
<linearGradient id="player-up-hair" x1="0" y1="0" x2="1" y2="1"><stop offset="0" stop-color="#6a4632"/><stop offset="1" stop-color="#4a3022"/></linearGradient>
<clipPath id="player-up-head-c"><ellipse cx="100" cy="94" rx="31" ry="28"/></clipPath>
<clipPath id="player-up-body-c"><path d="M74 124C74 116 82 112 92 112H108C118 112 126 116 126 124L129 148C129 153 124 156 100 156S71 153 71 148Z"/></clipPath>
<clipPath id="player-up-brim-c"><ellipse cx="100" cy="72" rx="52" ry="14"/></clipPath>
<clipPath id="player-up-crown-c"><path d="M75 72C75 54 85 46 100 46S125 54 125 72C117 78 83 78 75 72Z"/></clipPath>
</defs>
<ellipse cx="100" cy="180" rx="40" ry="9" fill="#1d2b33" opacity="0.25"/>
<g stroke-linejoin="round" stroke-linecap="round">
<rect x="84" y="144" width="14" height="22" rx="5" fill="#3f6b8a" stroke="#22344f" stroke-width="4"/>
<rect x="102" y="144" width="14" height="22" rx="5" fill="#33597a" stroke="#22344f" stroke-width="4"/>
<path d="M80 166C80 162 84 160 89 160H95C98 160 99 162 99 165V174C99 177 97 178 94 178H84C81 178 79 176 79 173Z" fill="#7a4a29" stroke="#3d2314" stroke-width="4"/>
<path d="M120 166C120 162 116 160 111 160H105C102 160 101 162 101 165V174C101 177 103 178 106 178H116C119 178 121 176 121 173Z" fill="#6c4024" stroke="#3d2314" stroke-width="4"/>
<path d="M82 172H97M103 172H118" fill="none" stroke="#4f2e18" stroke-width="2"/>
<g clip-path="url(#player-up-body-c)">
<rect x="60" y="108" width="80" height="52" fill="url(#player-up-red)"/>
<path d="M112 112C122 124 124 140 120 158H140V108Z" fill="#b8363d"/>
<ellipse cx="100" cy="114" rx="24" ry="8" fill="#b8363d"/>
<path d="M100 122V150" fill="none" stroke="#b8363d" stroke-width="2.5"/>
<path d="M78 124Q80 118 86 117" fill="none" stroke="#ff9a85" stroke-width="3"/>
<path d="M71 148Q100 154 129 148" fill="none" stroke="#9e2c36" stroke-width="2"/>
</g>
<path d="M74 124C74 116 82 112 92 112H108C118 112 126 116 126 124L129 148C129 153 124 156 100 156S71 153 71 148Z" fill="none" stroke="#7d2630" stroke-width="4"/>
<path d="M86 113L77 118L112 146L120 141Z" fill="#9b6233" stroke="#4d2c15" stroke-width="2.5"/>
<path d="M107 145C107 142 109 140 112 140H125C128 140 130 142 130 145V156C130 159 128 160 125 160H112C109 160 107 159 107 156Z" fill="#a46f38" stroke="#4d2c15" stroke-width="3.5"/>
<path d="M124 141H129V157C129 159 127 160 125 160H122Z" fill="#83552a"/>
<path d="M110 145H127" fill="none" stroke="#c99256" stroke-width="2"/>
<path d="M73 116C66 118 63 124 62 132L61 146C61 151 69 152 70 147L73 134Z" fill="url(#player-up-skin)" stroke="#a8644a" stroke-width="3.5"/>
<path d="M127 116C134 118 137 124 138 132L139 146C139 151 131 152 130 147L127 134Z" fill="#efbf94" stroke="#a8644a" stroke-width="3.5"/>
<path d="M75 115C67 116 62 122 61 131Q68 135 76 131Z" fill="url(#player-up-red)" stroke="#7d2630" stroke-width="3.5"/>
<path d="M125 115C133 116 138 122 139 131Q132 135 124 131Z" fill="#cf433f" stroke="#7d2630" stroke-width="3.5"/>
<ellipse cx="69" cy="98" rx="5" ry="7" fill="#f2c398" stroke="#a8644a" stroke-width="3"/>
<ellipse cx="131" cy="98" rx="5" ry="7" fill="#eab88c" stroke="#a8644a" stroke-width="3"/>
<g clip-path="url(#player-up-head-c)">
<rect x="66" y="64" width="68" height="60" fill="url(#player-up-skin)"/>
<path d="M68 70H132V106C126 112 120 114 114 112C110 117 104 118 100 114C96 118 90 117 86 112C80 114 74 112 68 106Z" fill="url(#player-up-hair)"/>
<path d="M134 80C130 98 120 110 104 116L114 112C120 114 126 112 132 106Z" fill="#3a2419"/>
<ellipse cx="100" cy="76" rx="52" ry="16" fill="#2e1d14"/>
<path d="M80 92Q84 100 86 108M96 92Q98 102 100 110M114 92Q114 100 112 108" fill="none" stroke="#7a5440" stroke-width="2"/>
<path d="M76 94Q84 88 96 88" fill="none" stroke="#9a7058" stroke-width="3"/>
</g>
<ellipse cx="100" cy="94" rx="31" ry="28" fill="none" stroke="#2a1912" stroke-width="4"/>
<g clip-path="url(#player-up-brim-c)">
<rect x="46" y="56" width="108" height="32" fill="url(#player-up-straw)"/>
<path d="M152 70C146 82 120 88 92 87C70 86 54 80 48 72V90H152Z" fill="#d6a656"/>
<ellipse cx="108" cy="76" rx="30" ry="9" fill="#c9974a" opacity="0.7"/>
<ellipse cx="100" cy="72" rx="42" ry="10" fill="none" stroke="#c99a52" stroke-width="1.5" stroke-dasharray="3 4"/>
<path d="M58 68Q66 62 80 60" fill="none" stroke="#fff6d6" stroke-width="3"/>
</g>
<ellipse cx="100" cy="72" rx="52" ry="14" fill="none" stroke="#9a6a2a" stroke-width="4.5"/>
<g clip-path="url(#player-up-crown-c)">
<rect x="72" y="44" width="56" height="36" fill="url(#player-up-straw)"/>
<path d="M114 47C122 54 124 62 122 80H128V44Z" fill="#d6a656"/>
<path d="M74 63C84 69 116 69 126 63V80H74Z" fill="#c4473a"/>
<path d="M112 66C118 66 122 65 126 63V80H110Z" fill="#9a3030"/>
<path d="M84 58Q85 51 93 49" fill="none" stroke="#fff6d6" stroke-width="3"/>
</g>
<path d="M75 72C75 54 85 46 100 46S125 54 125 72C117 78 83 78 75 72Z" fill="none" stroke="#9a6a2a" stroke-width="4"/>
<path d="M75.5 63.5C84 69 116 69 124.5 63.5" fill="none" stroke="#7a2a24" stroke-width="2"/>
<path d="M99 70L91 84L97 85L100 76L103 85L109 84L101 70Z" fill="#c4473a" stroke="#7a2a24" stroke-width="2"/>
<circle cx="100" cy="70" r="3.5" fill="#c4473a" stroke="#7a2a24" stroke-width="2"/>
</g>
</svg>
